<svg width="20" height="20" viewBox="0 0 20 20" fill="none" xmlns="http://www.w3.org/2000/svg">
<path fill-rule="evenodd" clip-rule="evenodd" d="M15.9801 6.2064L9.53215 14.2704C9.4692 14.3352 9.39446 14.3875 9.31189 14.4244C9.22443 14.4635 9.13 14.4846 9.03422 14.4864C8.93844 14.4882 8.84329 14.4706 8.75445 14.4348C8.66561 14.3989 8.58489 14.3455 8.51716 14.2778L4.23323 9.99383L4.22677 9.98782C4.15677 9.92259 4.10062 9.84393 4.06168 9.75653C4.02274 9.66913 4.0018 9.57478 4.00011 9.47912C3.99842 9.38345 4.01602 9.28842 4.05186 9.1997C4.08769 9.11098 4.14103 9.03039 4.20869 8.96273C4.27634 8.89508 4.35694 8.84174 4.44565 8.8059C4.53437 8.77007 4.6294 8.75247 4.72507 8.75416C4.82074 8.75585 4.91508 8.77679 5.00248 8.81573C5.08988 8.85467 5.16854 8.91082 5.23377 8.98082L5.23983 8.98732L9.03013 12.7758L14.986 5.18734L14.9982 5.17539C15.129 5.06132 15.2974 4.9987 15.4717 5.00002C15.6565 5.00142 15.8335 5.07454 15.9653 5.20396C16.0972 5.33337 16.1737 5.50896 16.1786 5.69367C16.1834 5.87838 16.1164 6.05776 15.9915 6.19396L15.9801 6.2064Z" fill="#5B5B5B"/>
</svg>
