<svg width="20" height="20" viewBox="0 0 20 20" fill="none" xmlns="http://www.w3.org/2000/svg">
<path d="M8.75185 5.20702C8.52252 6.18564 8.49133 7.20022 8.66012 8.19107C8.82892 9.18192 9.19428 10.129 9.73472 10.9767C10.2752 11.8243 10.9798 12.5553 11.8071 13.1268C12.6344 13.6982 13.5677 14.0985 14.552 14.3041C14.0345 14.8393 13.4147 15.2652 12.7293 15.5563C12.044 15.8475 11.3071 15.9981 10.5623 15.9992C10.4933 15.9992 10.4233 16.0017 10.3532 15.9992C9.05671 15.9535 7.81715 15.4553 6.84991 14.5912C5.88266 13.7271 5.24885 12.5516 5.05859 11.269C4.86833 9.98642 5.13365 8.67771 5.80844 7.57028C6.48322 6.46285 7.52485 5.62667 8.75235 5.20702H8.75185ZM9.49126 4C9.4619 4.0001 9.4326 4.00278 9.40371 4.008C7.81114 4.29126 6.37972 5.15336 5.38505 6.4283C4.39037 7.70323 3.90277 9.30088 4.01611 10.9136C4.12946 12.5264 4.83574 14.0402 5.99898 15.1636C7.16222 16.2871 8.70016 16.9407 10.3167 16.9987C10.3988 17.0017 10.4808 16.9987 10.5618 16.9987C11.6119 16.9994 12.6467 16.7473 13.5787 16.2638C14.5107 15.7804 15.3125 15.0797 15.9163 14.2211C15.9652 14.1471 15.9938 14.0616 15.9991 13.973C16.0044 13.8845 15.9863 13.7961 15.9466 13.7168C15.9069 13.6375 15.847 13.57 15.7729 13.5212C15.6988 13.4723 15.6132 13.4439 15.5246 13.4386C14.5252 13.351 13.5593 13.0348 12.7016 12.5145C11.844 11.9943 11.1175 11.2839 10.5783 10.4383C10.0391 9.59266 9.70175 8.63446 9.5922 7.63773C9.48265 6.641 9.60388 5.63244 9.94651 4.69001C9.97566 4.61457 9.98635 4.53327 9.97769 4.45287C9.96903 4.37247 9.94128 4.2953 9.89674 4.22779C9.8522 4.16028 9.79216 4.10438 9.72163 4.06476C9.6511 4.02514 9.57212 4.00294 9.49126 4V4Z" fill="#5B5B5B"/>
</svg>
