<svg width="20" height="20" viewBox="0 0 20 20" fill="none" xmlns="http://www.w3.org/2000/svg">
<path fill-rule="evenodd" clip-rule="evenodd" d="M14.3073 6.32926C14.1146 6.82736 13.7784 7.25578 13.343 7.56136C13.6104 7.74826 13.8421 7.98245 14.0262 8.25279C14.2393 8.56582 14.384 8.92027 14.4507 9.29298C14.5174 9.6657 14.5047 10.0483 14.4134 10.4158C14.322 10.7832 14.1541 11.1273 13.9206 11.4255C13.6871 11.7236 13.3933 11.9692 13.0583 12.1462C12.7234 12.3232 12.3548 12.4275 11.9767 12.4524C11.5987 12.4773 11.2196 12.4222 10.8643 12.2908C10.5807 12.1858 10.3174 12.0341 10.085 11.8424L10.0875 14.1761C10.0881 14.6452 9.96604 15.1063 9.73338 15.5138C9.50071 15.9212 9.16555 16.2608 8.76112 16.4989C8.35669 16.737 7.89701 16.8654 7.42764 16.8714C6.95826 16.8773 6.49548 16.7606 6.08513 16.5328C5.67479 16.305 5.33113 15.974 5.08821 15.5726C4.84528 15.1712 4.71154 14.7133 4.70022 14.2444C4.68891 13.7754 4.80042 13.3116 5.0237 12.899C5.2224 12.5318 5.50348 12.2164 5.84407 11.9772C5.51125 11.7449 5.23473 11.4399 5.03594 11.0846C4.81193 10.6843 4.69407 10.2334 4.69355 9.77467C4.69304 9.31599 4.8099 8.8648 5.03301 8.46396C5.23099 8.10827 5.5068 7.80271 5.83907 7.56966C5.40296 7.26506 5.06585 6.83739 4.87202 6.33973C4.65942 5.79389 4.63079 5.19365 4.79047 4.63008C4.95016 4.0665 5.28944 3.57037 5.75683 3.21693C6.2242 2.8635 6.79421 2.67205 7.38032 2.67161L11.7911 2.66674C12.3771 2.66592 12.9475 2.85612 13.4156 3.20851C13.8838 3.56091 14.2241 4.05628 14.3851 4.61948C14.546 5.18268 14.5187 5.78296 14.3073 6.32926ZM11.8009 7.07399L11.7921 7.07422L10.0797 7.07605L10.0759 3.64643L11.7921 3.64453C12.2471 3.64455 12.6836 3.82493 13.0057 4.14607C13.3277 4.46721 13.5092 4.90287 13.5102 5.35748C13.5102 5.81189 13.3299 6.24776 13.0088 6.56957C12.8711 6.70755 12.7123 6.8197 12.54 6.9029C12.3116 7.01322 12.0594 7.07266 11.8009 7.07399ZM7.38096 8.05688L9.10242 8.05498L9.1062 11.4845L7.39011 11.4865C6.93505 11.4865 6.49859 11.3061 6.17647 10.9849C5.85439 10.6638 5.67295 10.2282 5.67191 9.77354C5.67194 9.31913 5.85227 8.88324 6.17339 8.56143C6.49355 8.24059 6.92762 8.05929 7.38096 8.05688ZM8.60727 15.3897C8.28587 15.7116 7.84981 15.8929 7.39476 15.8939C7.16851 15.8955 6.9437 15.8524 6.7342 15.767C6.5247 15.6817 6.33415 15.5558 6.17353 15.3966C6.01291 15.2374 5.88537 15.0481 5.79826 14.8394C5.71114 14.6308 5.66617 14.407 5.66592 14.181C5.66567 13.9549 5.71015 13.7311 5.79681 13.5223C5.88346 13.3135 6.01058 13.1238 6.17085 12.9643C6.33112 12.8047 6.52138 12.6784 6.7307 12.5926C6.94001 12.5068 7.16484 12.4632 7.39108 12.4643L9.10728 12.4624L9.10917 14.1771C9.10916 14.6318 8.92866 15.0678 8.60727 15.3897ZM5.66705 5.36613C5.66708 4.91152 5.84757 4.47546 6.16894 4.15362C6.49034 3.83175 6.92641 3.6504 7.38147 3.6494L9.09756 3.64751L9.10134 7.07712L7.38409 7.07902C6.92924 7.07871 6.49308 6.8982 6.17122 6.57709C5.84939 6.256 5.6681 5.82054 5.66705 5.36613ZM11.8007 11.4816C11.3475 11.4796 10.9135 11.2985 10.5934 10.9779C10.2732 10.6572 10.093 10.2229 10.0922 9.76988C10.0914 9.31687 10.27 8.88192 10.5891 8.56004C10.9081 8.23823 11.3415 8.05559 11.7948 8.05201L11.798 8.052C12.2513 8.05445 12.6852 8.23599 13.005 8.55699C13.3248 8.87805 13.5046 9.31253 13.5049 9.76554C13.5052 10.2185 13.3262 10.6533 13.0068 10.9748C12.6875 11.2963 12.254 11.4784 11.8007 11.4816Z" fill="#5B5B5B"/>
</svg>
