<svg width="20" height="20" viewBox="0 0 20 20" fill="none" xmlns="http://www.w3.org/2000/svg">
<path fill-rule="evenodd" clip-rule="evenodd" d="M11.5721 14.0389L11.5729 14.0326C11.601 13.809 11.5771 13.582 11.503 13.3692C11.429 13.1564 11.3068 12.9636 11.146 12.8057L11.0982 12.7588L11.4295 11.8975L11.4901 11.8897C12.3722 11.7759 13.2458 11.5787 13.8997 11.042C14.5477 10.5102 14.9968 9.63029 14.9968 8.11146C14.9968 7.39738 14.7225 6.73641 14.2239 6.18259L14.2069 6.1637L14.0786 5.65131L14.0907 5.62076C14.2878 5.12437 14.3156 4.57775 14.1713 4.06529C13.873 4.12874 13.3361 4.27868 12.4762 4.8859L12.457 4.89948L12.0695 4.96321L12.0488 4.95795C10.7172 4.61994 9.32231 4.61994 7.99077 4.95795L7.97003 4.96321L7.58605 4.90005L7.56897 4.88961C6.63647 4.31922 6.09746 4.13784 5.81562 4.10983C5.67226 4.64115 5.68382 5.20957 5.88954 5.67415L5.90372 5.70616L5.77488 6.2235L5.75482 6.24355C5.20299 6.79521 4.92857 7.51114 4.92857 8.16852C4.92857 9.66032 5.35011 10.5404 5.98409 11.0788C6.62336 11.6216 7.49619 11.833 8.43389 11.9467L8.49988 11.9547L8.76579 12.8187L8.7223 12.8621C8.39985 13.1845 8.24202 13.6105 8.29481 14.0326L8.2956 14.0389V16.4406C8.29653 16.5142 8.28275 16.5872 8.25506 16.6554C8.22727 16.7238 8.18604 16.7859 8.1338 16.8382C8.08156 16.8904 8.01937 16.9316 7.9509 16.9594C7.88287 16.987 7.81002 17.0008 7.7366 17C7.66319 17.0008 7.59034 16.987 7.52231 16.9594C7.45384 16.9316 7.39165 16.8904 7.33941 16.8382C7.28716 16.7859 7.24594 16.7238 7.21815 16.6554C7.19046 16.5872 7.17668 16.5142 7.17761 16.4406V15.254C6.27957 15.4209 5.6333 15.2763 5.13862 14.9897C4.6311 14.6956 4.29321 14.2568 4.01087 13.8901L4.00424 13.8815C3.9944 13.8697 3.98465 13.858 3.97499 13.8464C3.84342 13.6884 3.72845 13.5503 3.61429 13.4426C3.49182 13.3269 3.38033 13.2562 3.26497 13.2331L3.23426 13.227L3.21225 13.2047C3.17622 13.1683 3.11212 13.0873 3.06395 12.9832C3.01589 12.8793 2.97815 12.7401 3.01452 12.5946C3.04904 12.4566 3.13557 12.3334 3.25289 12.2613C3.36957 12.1896 3.51621 12.1695 3.66111 12.2365C4.21294 12.3521 4.56368 12.7679 4.87167 13.133C4.90163 13.1685 4.93119 13.2035 4.96048 13.2377L4.9626 13.2402L4.96455 13.2428C5.22282 13.5866 5.46738 13.8959 5.82928 14.0834C6.17422 14.2621 6.63961 14.3364 7.34885 14.1915V14.0521C7.29674 13.6194 7.38949 13.1894 7.5819 12.8056C6.75383 12.6252 5.86398 12.2903 5.16839 11.6157C4.43198 10.9015 3.92474 9.81786 3.92474 8.16915C3.92474 7.24985 4.20759 6.44052 4.77308 5.74544C4.61059 4.94366 4.67137 4.08691 4.96001 3.39435L4.97008 3.37021L5.28439 3.11884L5.29409 3.11399C5.33959 3.09124 5.42602 3.06821 5.54958 3.05972C5.67588 3.05103 5.84686 3.05708 6.06489 3.0977C6.49446 3.17771 7.10764 3.39204 7.92441 3.89406C9.28078 3.56173 10.6973 3.56154 12.0538 3.89348C12.8438 3.36357 13.4575 3.1347 13.8946 3.04724C14.1166 3.00282 14.2931 2.99488 14.4238 3.0026C14.5511 3.01012 14.6421 3.03293 14.6888 3.0565L14.6982 3.06129L15.0146 3.31429L15.0243 3.34159C15.3097 4.14041 15.3729 4.94385 15.155 5.7481C15.7187 6.44248 16 7.25071 16 8.16852C16 9.84331 15.5228 10.9415 14.8074 11.6568C14.1311 12.333 13.2535 12.6552 12.4009 12.8099C12.5863 13.1993 12.633 13.628 12.633 14.0453V16.3842C12.633 16.5472 12.5838 16.6875 12.4922 16.7881C12.4003 16.8892 12.2725 16.9427 12.1318 16.9429C12.0582 16.9438 11.985 16.93 11.9168 16.9023C11.8483 16.8745 11.7861 16.8333 11.7339 16.7811C11.6816 16.7289 11.6404 16.6667 11.6126 16.5983C11.5849 16.5301 11.5711 16.4571 11.5721 16.3836V14.0389Z" fill="#5B5B5B"/>
</svg>
