<svg width="20" height="20" viewBox="0 0 20 20" fill="none" xmlns="http://www.w3.org/2000/svg">
<path d="M8.27906 8.45492V12.6355C8.27906 12.7395 8.23777 12.8391 8.16426 12.9127C8.09076 12.9862 7.99107 13.0274 7.88713 13.0274C7.78318 13.0274 7.68349 12.9862 7.60999 12.9127C7.53649 12.8391 7.4952 12.7395 7.4952 12.6355V8.45492C7.4952 8.35097 7.53649 8.25128 7.60999 8.17778C7.68349 8.10428 7.78318 8.06299 7.88713 8.06299C7.99107 8.06299 8.09076 8.10428 8.16426 8.17778C8.23777 8.25128 8.27906 8.35097 8.27906 8.45492ZM7.88713 5.71133C7.75793 5.71133 7.63164 5.74964 7.52422 5.82142C7.4168 5.8932 7.33307 5.99522 7.28363 6.11458C7.23419 6.23394 7.22126 6.36528 7.24646 6.49199C7.27166 6.6187 7.33388 6.73509 7.42523 6.82645C7.51659 6.9178 7.63298 6.98001 7.75969 7.00522C7.8864 7.03042 8.01774 7.01749 8.1371 6.96805C8.25646 6.91861 8.35848 6.83488 8.43026 6.72746C8.50203 6.62004 8.54035 6.49375 8.54035 6.36455C8.54035 6.19131 8.47152 6.02516 8.34902 5.90266C8.22652 5.78016 8.06037 5.71133 7.88713 5.71133ZM16.9015 4.01297V14.987C16.9013 15.2295 16.8048 15.4619 16.6334 15.6334C16.4619 15.8048 16.2295 15.9013 15.987 15.9015H5.01297C4.77051 15.9013 4.53806 15.8048 4.36662 15.6334C4.19518 15.4619 4.09874 15.2295 4.09846 14.987V4.01297C4.09874 3.77051 4.19518 3.53806 4.36662 3.36662C4.53806 3.19518 4.77051 3.09874 5.01297 3.09846H15.987C16.2295 3.09874 16.4619 3.19518 16.6334 3.36662C16.8048 3.53806 16.9013 3.77051 16.9015 4.01297ZM16.1177 4.01297C16.1176 3.97833 16.1039 3.94512 16.0794 3.92063C16.0549 3.89613 16.0217 3.88236 15.987 3.88232H5.01297C4.97833 3.88236 4.94512 3.89613 4.92063 3.92063C4.89613 3.94512 4.88236 3.97833 4.88232 4.01297V14.987C4.88236 15.0217 4.89613 15.0549 4.92063 15.0794C4.94512 15.1039 4.97833 15.1176 5.01297 15.1177H15.987C16.0217 15.1176 16.0549 15.1039 16.0794 15.0794C16.1039 15.0549 16.1176 15.0217 16.1177 14.987V4.01297ZM11.8064 8.06299C11.2796 8.06263 10.77 8.25043 10.3694 8.59255V8.45492C10.3694 8.35097 10.3281 8.25128 10.2546 8.17778C10.1811 8.10428 10.0814 8.06299 9.97743 8.06299C9.87348 8.06299 9.77379 8.10428 9.70029 8.17778C9.62679 8.25128 9.58549 8.35097 9.58549 8.45492V12.6355C9.58549 12.7395 9.62679 12.8391 9.70029 12.9127C9.77379 12.9862 9.87348 13.0274 9.97743 13.0274C10.0814 13.0274 10.1811 12.9862 10.2546 12.9127C10.3281 12.8391 10.3694 12.7395 10.3694 12.6355V10.2839C10.3694 9.90279 10.5208 9.53726 10.7903 9.26776C11.0598 8.99825 11.4253 8.84685 11.8064 8.84685C12.1876 8.84685 12.5531 8.99825 12.8226 9.26776C13.0921 9.53726 13.2435 9.90279 13.2435 10.2839V12.6355C13.2435 12.7395 13.2848 12.8391 13.3583 12.9127C13.4318 12.9862 13.5315 13.0274 13.6354 13.0274C13.7394 13.0274 13.8391 12.9862 13.9126 12.9127C13.9861 12.8391 14.0274 12.7395 14.0274 12.6355V10.2839C14.0267 9.6951 13.7925 9.13059 13.3761 8.71423C12.9598 8.29787 12.3953 8.06366 11.8064 8.06299Z" fill="#5B5B5B"/>
<path fill-rule="evenodd" clip-rule="evenodd" d="M17 4.01299V14.9871C16.9997 15.2556 16.8929 15.5132 16.703 15.703C16.5132 15.8929 16.2557 15.9997 15.9872 16H5.01299C4.74445 15.9997 4.48689 15.8929 4.297 15.703C4.10712 15.5132 4.00031 15.2557 4 14.9872L4 4.01299C4.00031 3.74445 4.10712 3.48689 4.297 3.297C4.48689 3.10712 4.74434 3.00031 5.01288 3L15.9871 3C16.2556 3.00031 16.5132 3.10712 16.703 3.297C16.8929 3.48689 16.9997 3.74445 17 4.01299ZM11.8066 7.96452C12.4215 7.96523 13.011 8.20981 13.4458 8.64461C13.8806 9.07942 14.1252 9.66894 14.1259 10.2838V12.6355C14.1259 12.7656 14.0742 12.8903 13.9822 12.9823C13.8903 13.0743 13.7655 13.126 13.6355 13.126C13.5054 13.126 13.3807 13.0743 13.2887 12.9823C13.1967 12.8903 13.1451 12.7656 13.1451 12.6355V10.284C13.1451 9.92893 13.004 9.58846 12.753 9.33742C12.502 9.08639 12.1615 8.94536 11.8065 8.94536C11.4514 8.94536 11.111 9.08639 10.8599 9.33742C10.6089 9.58846 10.4679 9.92893 10.4679 10.284V12.6355C10.4679 12.7656 10.4162 12.8903 10.3242 12.9823C10.2323 13.0743 10.1075 13.126 9.97745 13.126C9.84738 13.126 9.72264 13.0743 9.63067 12.9823C9.5387 12.8903 9.48703 12.7656 9.48703 12.6355V8.45494C9.48703 8.32487 9.5387 8.20013 9.63067 8.10816C9.72264 8.01619 9.84738 7.96452 9.97745 7.96452C10.1075 7.96452 10.2323 8.01619 10.3242 8.10816C10.4017 8.1856 10.4505 8.28625 10.464 8.39376C10.8545 8.11524 11.3236 7.9642 11.8066 7.96452ZM10.4679 8.51323C10.4344 8.53867 10.4015 8.5651 10.3694 8.59255V8.45492C10.3694 8.35097 10.3281 8.25128 10.2546 8.17778C10.1811 8.10428 10.0814 8.06299 9.97743 8.06299C9.87348 8.06299 9.77379 8.10428 9.70029 8.17778C9.62679 8.25128 9.58549 8.35097 9.58549 8.45492V12.6355C9.58549 12.7395 9.62679 12.8391 9.70029 12.9127C9.77379 12.9862 9.87348 13.0274 9.97743 13.0274C10.0814 13.0274 10.1811 12.9862 10.2546 12.9127C10.3281 12.8391 10.3694 12.7395 10.3694 12.6355V10.2839C10.3694 9.90279 10.5208 9.53726 10.7903 9.26776C11.0598 8.99825 11.4253 8.84685 11.8064 8.84685C12.1876 8.84685 12.5531 8.99825 12.8226 9.26776C13.0921 9.53726 13.2435 9.90279 13.2435 10.2839V12.6355C13.2435 12.7395 13.2848 12.8391 13.3583 12.9127C13.4318 12.9862 13.5315 13.0274 13.6354 13.0274C13.7394 13.0274 13.8391 12.9862 13.9126 12.9127C13.9861 12.8391 14.0274 12.7395 14.0274 12.6355V10.2839C14.0267 9.6951 13.7925 9.13059 13.3761 8.71423C12.9598 8.29787 12.3953 8.06366 11.8064 8.06299C11.3219 8.06266 10.8519 8.22153 10.4679 8.51323ZM8.37757 8.45494V12.6355C8.37757 12.7656 8.3259 12.8903 8.23393 12.9823C8.14196 13.0743 8.01722 13.126 7.88715 13.126C7.75708 13.126 7.63235 13.0743 7.54037 12.9823C7.4484 12.8903 7.39673 12.7656 7.39673 12.6355V8.45494C7.39673 8.32487 7.4484 8.20013 7.54037 8.10816C7.63235 8.01619 7.75708 7.96452 7.88715 7.96452C8.01722 7.96452 8.14196 8.01619 8.23393 8.10816C8.3259 8.20013 8.37757 8.32487 8.37757 8.45494ZM7.46953 5.73956C7.59314 5.65696 7.73848 5.61287 7.88715 5.61287C8.08652 5.61287 8.27771 5.69207 8.41869 5.83304C8.55966 5.97401 8.63885 6.16521 8.63885 6.36458C8.63885 6.51325 8.59477 6.65858 8.51217 6.7822C8.42957 6.90582 8.31217 7.00217 8.17482 7.05906C8.03746 7.11595 7.88632 7.13084 7.7405 7.10184C7.59468 7.07283 7.46074 7.00124 7.35562 6.89611C7.25049 6.79098 7.1789 6.65704 7.14989 6.51123C7.12089 6.36541 7.13577 6.21427 7.19267 6.07691C7.24956 5.93956 7.34591 5.82216 7.46953 5.73956ZM4.09846 4.01297V14.987C4.09874 15.2295 4.19518 15.4619 4.36662 15.6334C4.53806 15.8048 4.77051 15.9013 5.01297 15.9015H15.987C16.2295 15.9013 16.4619 15.8048 16.6334 15.6334C16.8048 15.4619 16.9013 15.2295 16.9015 14.987V4.01297C16.9013 3.77051 16.8048 3.53806 16.6334 3.36662C16.4619 3.19518 16.2295 3.09874 15.987 3.09846H5.01297C4.77051 3.09874 4.53806 3.19518 4.36662 3.36662C4.19518 3.53806 4.09874 3.77051 4.09846 4.01297ZM16.0192 4.01309C16.0192 4.00454 16.0158 3.99634 16.0098 3.99029C16.0037 3.98425 15.9955 3.98085 15.987 3.98083L5.01309 3.98083C5.00454 3.98084 4.99634 3.98424 4.99029 3.99029C4.98425 3.99633 4.98085 4.00451 4.98083 4.01305L4.98083 14.987C4.98084 14.9955 4.98424 15.0037 4.99029 15.0098C4.99634 15.0158 5.00454 15.0192 5.01309 15.0192H15.987C15.9955 15.0192 16.0037 15.0158 16.0098 15.0098C16.0158 15.0037 16.0192 14.9955 16.0192 14.987V4.01309ZM16.1177 4.01297C16.1176 3.97833 16.1039 3.94512 16.0794 3.92063C16.0549 3.89613 16.0217 3.88236 15.987 3.88232H5.01297C4.97833 3.88236 4.94512 3.89613 4.92063 3.92063C4.89613 3.94512 4.88236 3.97833 4.88232 4.01297V14.987C4.88236 15.0217 4.89613 15.0549 4.92063 15.0794C4.94512 15.1039 4.97833 15.1176 5.01297 15.1177H15.987C16.0217 15.1176 16.0549 15.1039 16.0794 15.0794C16.1039 15.0549 16.1176 15.0217 16.1177 14.987V4.01297ZM8.27906 12.6355V8.45492C8.27906 8.35097 8.23777 8.25128 8.16426 8.17778C8.09076 8.10428 7.99107 8.06299 7.88713 8.06299C7.78318 8.06299 7.68349 8.10428 7.60999 8.17778C7.53649 8.25128 7.4952 8.35097 7.4952 8.45492V12.6355C7.4952 12.7395 7.53649 12.8391 7.60999 12.9127C7.68349 12.9862 7.78318 13.0274 7.88713 13.0274C7.99107 13.0274 8.09076 12.9862 8.16426 12.9127C8.23777 12.8391 8.27906 12.7395 8.27906 12.6355ZM7.52422 5.82142C7.63164 5.74964 7.75793 5.71133 7.88713 5.71133C8.06037 5.71133 8.22652 5.78016 8.34902 5.90266C8.47152 6.02516 8.54035 6.19131 8.54035 6.36455C8.54035 6.49375 8.50203 6.62004 8.43026 6.72746C8.35848 6.83488 8.25646 6.91861 8.1371 6.96805C8.01774 7.01749 7.8864 7.03042 7.75969 7.00522C7.63298 6.98001 7.51659 6.9178 7.42523 6.82645C7.33388 6.73509 7.27166 6.6187 7.24646 6.49199C7.22126 6.36528 7.23419 6.23394 7.28363 6.11458C7.33307 5.99522 7.4168 5.8932 7.52422 5.82142Z" fill="#5B5B5B"/>
</svg>
