<svg width="20" height="20" viewBox="0 0 20 20" fill="none" xmlns="http://www.w3.org/2000/svg">
<path d="M8.16667 4C7.525 4 7 4.54 7 5.2V7.102C7 7.42 7.1225 7.726 7.34417 7.954L9.33333 10L7.33833 12.052C7.1225 12.28 7 12.586 7 12.904V14.8C7 15.46 7.525 16 8.16667 16H12.8333C13.475 16 14 15.46 14 14.8V12.904C14 12.586 13.8775 12.28 13.6617 12.058L11.6667 10L13.6558 7.96C13.8775 7.732 14 7.426 14 7.108V5.2C14 4.54 13.475 4 12.8333 4H8.16667ZM12.8333 12.7V14.2C12.8333 14.53 12.5708 14.8 12.25 14.8H8.75C8.42917 14.8 8.16667 14.53 8.16667 14.2V12.7L10.5 10.3L12.8333 12.7ZM10.5 9.7L8.16667 7.3V5.8C8.16667 5.47 8.42917 5.2 8.75 5.2H12.25C12.5708 5.2 12.8333 5.47 12.8333 5.8V7.3L10.5 9.7Z" fill="#5B5B5B"/>
</svg>
