<svg width="20" height="20" viewBox="0 0 20 20" fill="none" xmlns="http://www.w3.org/2000/svg">
<path fill-rule="evenodd" clip-rule="evenodd" d="M13.1623 5.12407C13.0182 5.63835 12.7247 6.09703 12.3205 6.44294C12.6047 6.60334 12.8577 6.81425 13.0668 7.06571C13.309 7.35686 13.487 7.69581 13.5891 8.06041C13.6913 8.42502 13.7153 8.80707 13.6595 9.18159C13.6038 9.55612 13.4697 9.9147 13.2658 10.2339C13.062 10.5531 12.793 10.8257 12.4766 11.0339C12.1601 11.2422 11.8033 11.3814 11.4293 11.4424C11.0554 11.5035 10.6728 11.485 10.3065 11.3881C10.0142 11.3109 9.73751 11.1851 9.48783 11.0166L9.71407 13.3393C9.75961 13.8062 9.68227 14.2768 9.48973 14.7047C9.29719 15.1325 8.99612 15.5027 8.61637 15.7785C8.23663 16.0543 7.79137 16.2262 7.32473 16.2771C6.85809 16.328 6.38625 16.2561 5.95596 16.0687C5.52567 15.8813 5.15186 15.5848 4.87159 15.2085C4.59131 14.8322 4.4143 14.3893 4.35808 13.9236C4.30187 13.4578 4.36842 12.9855 4.55113 12.5534C4.71372 12.1688 4.96327 11.828 5.27937 11.5572C4.92581 11.3578 4.62133 11.0808 4.38941 10.7462C4.12806 10.3691 3.96752 9.93159 3.92304 9.47507C3.87857 9.01855 3.95164 8.55823 4.13531 8.13785C4.29829 7.76483 4.54355 7.43424 4.85195 7.17041C4.38865 6.90901 4.0121 6.51562 3.77146 6.03883C3.50752 5.51588 3.4215 4.92115 3.52643 4.34487C3.63137 3.76858 3.92153 3.24221 4.35289 2.84561C4.78424 2.44901 5.33328 2.20381 5.91664 2.14719L10.3066 1.7196C10.8899 1.6626 11.4759 1.79726 11.9756 2.10316C12.4754 2.40907 12.8617 2.86954 13.0758 3.41472C13.29 3.9599 13.3204 4.56004 13.1623 5.12407ZM10.7388 6.10561L10.7301 6.10668L9.02576 6.27263L8.69327 2.85916L10.4013 2.69279C10.8543 2.64919 11.306 2.78691 11.6574 3.0757C12.0088 3.36449 12.2312 3.78075 12.2758 4.23317C12.3193 4.68549 12.1816 5.13664 11.8928 5.48774C11.769 5.63828 11.6217 5.76513 11.4582 5.86446C11.2414 5.99617 10.996 6.07951 10.7388 6.10561ZM6.43343 7.50761L8.14679 7.34072L8.47926 10.7541L6.77126 10.9206C6.31829 10.9642 5.86655 10.8265 5.51514 10.5376C5.16376 10.2489 4.94139 9.83259 4.89679 9.38017C4.85327 8.92785 4.99098 8.47669 5.27978 8.12558C5.56772 7.77553 5.98241 7.55346 6.43343 7.50761ZM8.35691 14.6891C8.06784 15.0403 7.65117 15.2626 7.19831 15.3072C6.97327 15.3305 6.74536 15.3091 6.52864 15.2443C6.31192 15.1794 6.11019 15.0723 5.93505 14.9293C5.7599 14.7862 5.61481 14.6099 5.5081 14.4106C5.40139 14.2113 5.33518 13.9929 5.31326 13.7679C5.29135 13.5429 5.31417 13.3158 5.38041 13.0997C5.44665 12.8835 5.555 12.6826 5.69925 12.5084C5.84349 12.3342 6.02077 12.1902 6.2209 12.0848C6.42102 11.9793 6.64063 11.9143 6.86594 11.8937L8.57406 11.7274L8.74029 13.434C8.78385 13.8866 8.64598 14.338 8.35691 14.6891ZM4.46952 4.99352C4.42598 4.54099 4.56384 4.08964 4.85288 3.73848C5.14195 3.38729 5.55863 3.16498 6.0115 3.12037L7.71951 2.954L8.05199 6.36747L6.34282 6.53395C5.89004 6.57724 5.43859 6.43936 5.08743 6.15058C4.73631 5.86182 4.51412 5.44573 4.46952 4.99352ZM11.1611 10.493C10.7098 10.5344 10.2604 10.3958 9.91107 10.1073C9.56159 9.81875 9.34061 9.40372 9.29638 8.95287C9.25215 8.50201 9.38825 8.05195 9.675 7.70097C9.96168 7.35006 10.3757 7.12672 10.8265 7.07971L10.8296 7.0794C11.2811 7.03839 11.7304 7.17751 12.0795 7.46637C12.4287 7.7553 12.6492 8.17056 12.6929 8.62145C12.7367 9.07234 12.6001 9.52225 12.313 9.87293C12.026 10.2235 11.6119 10.4464 11.1611 10.493Z" fill="#5B5B5B"/>
</svg>
