<svg width="20" height="20" viewBox="0 0 20 20" fill="none" xmlns="http://www.w3.org/2000/svg">
<path d="M7.93668 8.29407V13.1181C7.93668 13.2381 7.88904 13.3531 7.80422 13.4379C7.71941 13.5227 7.60438 13.5704 7.48443 13.5704C7.36449 13.5704 7.24945 13.5227 7.16464 13.4379C7.07982 13.3531 7.03218 13.2381 7.03218 13.1181V8.29407C7.03218 8.17413 7.07982 8.05909 7.16464 7.97428C7.24945 7.88947 7.36449 7.84182 7.48443 7.84182C7.60438 7.84182 7.71941 7.88947 7.80422 7.97428C7.88904 8.05909 7.93668 8.17413 7.93668 8.29407ZM7.48443 5.12822C7.33535 5.12822 7.18962 5.17242 7.06567 5.25525C6.94171 5.33807 6.8451 5.45579 6.78805 5.59352C6.731 5.73126 6.71607 5.88281 6.74516 6.02903C6.77424 6.17524 6.84603 6.30955 6.95144 6.41496C7.05686 6.52038 7.19117 6.59216 7.33738 6.62125C7.48359 6.65033 7.63515 6.63541 7.77288 6.57836C7.91061 6.52131 8.02833 6.42469 8.11116 6.30074C8.19398 6.17679 8.23819 6.03105 8.23819 5.88197C8.23819 5.68207 8.15877 5.49034 8.01742 5.34899C7.87606 5.20763 7.68434 5.12822 7.48443 5.12822ZM17.8863 3.16845V15.8316C17.886 16.1113 17.7747 16.3796 17.5768 16.5774C17.379 16.7752 17.1108 16.8865 16.831 16.8868H4.1679C3.88812 16.8865 3.6199 16.7752 3.42207 16.5774C3.22424 16.3796 3.11296 16.1113 3.11264 15.8316V3.16845C3.11296 2.88867 3.22424 2.62045 3.42207 2.42262C3.6199 2.22479 3.88812 2.11351 4.1679 2.11319H16.831C17.1108 2.11351 17.379 2.22479 17.5768 2.42262C17.7747 2.62045 17.886 2.88867 17.8863 3.16845ZM16.9818 3.16845C16.9817 3.12848 16.9658 3.09016 16.9376 3.0619C16.9093 3.03363 16.871 3.01774 16.831 3.0177H4.1679C4.12793 3.01774 4.08961 3.03363 4.06135 3.0619C4.03308 3.09016 4.01719 3.12848 4.01715 3.16845V15.8316C4.01719 15.8715 4.03308 15.9099 4.06135 15.9381C4.08961 15.9664 4.12793 15.9823 4.1679 15.9823H16.831C16.871 15.9823 16.9093 15.9664 16.9376 15.9381C16.9658 15.9099 16.9817 15.8715 16.9818 15.8316V3.16845ZM12.007 7.84182C11.3991 7.84141 10.811 8.05812 10.3487 8.45289V8.29407C10.3487 8.17413 10.3011 8.05909 10.2162 7.97428C10.1314 7.88947 10.0164 7.84182 9.89645 7.84182C9.77651 7.84182 9.66148 7.88947 9.57666 7.97428C9.49185 8.05909 9.4442 8.17413 9.4442 8.29407V13.1181C9.4442 13.2381 9.49185 13.3531 9.57666 13.4379C9.66148 13.5227 9.77651 13.5704 9.89645 13.5704C10.0164 13.5704 10.1314 13.5227 10.2162 13.4379C10.3011 13.3531 10.3487 13.2381 10.3487 13.1181V10.4046C10.3487 9.96479 10.5234 9.54301 10.8344 9.23202C11.1454 8.92104 11.5672 8.74633 12.007 8.74633C12.4468 8.74633 12.8686 8.92104 13.1795 9.23202C13.4905 9.54301 13.6652 9.96479 13.6652 10.4046V13.1181C13.6652 13.2381 13.7129 13.3531 13.7977 13.4379C13.8825 13.5227 13.9975 13.5704 14.1175 13.5704C14.2374 13.5704 14.3525 13.5227 14.4373 13.4379C14.5221 13.3531 14.5697 13.2381 14.5697 13.1181V10.4046C14.569 9.72514 14.2987 9.07374 13.8183 8.5933C13.3378 8.11285 12.6864 7.8426 12.007 7.84182Z" fill="#5B5B5B"/>
<path fill-rule="evenodd" clip-rule="evenodd" d="M18 3.16848V15.8316C17.9996 16.1415 17.8763 16.4387 17.6572 16.6578C17.4381 16.8769 17.141 17.0001 16.8312 17.0005H4.16793C3.85806 17.0001 3.56085 16.8769 3.34174 16.6578C3.12263 16.4387 2.99938 16.1416 2.99902 15.8317L2.99902 3.16848C2.99938 2.85861 3.12263 2.5614 3.34174 2.34229C3.56085 2.12318 3.85793 1.99993 4.1678 1.99957L16.8311 1.99957C17.1409 1.99993 17.4381 2.12318 17.6572 2.34229C17.8763 2.5614 17.9996 2.85861 18 3.16848ZM12.0071 7.7282C12.7167 7.72902 13.3969 8.01124 13.8987 8.51297C14.4004 9.01469 14.6826 9.69495 14.6834 10.4045V13.1181C14.6834 13.2682 14.6238 13.4122 14.5177 13.5183C14.4115 13.6244 14.2676 13.684 14.1175 13.684C13.9674 13.684 13.8235 13.6244 13.7174 13.5183C13.6112 13.4122 13.5516 13.2682 13.5516 13.1181V10.4046C13.5516 9.99496 13.3889 9.60208 13.0992 9.31241C12.8095 9.02274 12.4167 8.86 12.007 8.86C11.5973 8.86 11.2045 9.02274 10.9148 9.31241C10.6251 9.60208 10.4624 9.99496 10.4624 10.4046V13.1181C10.4624 13.2682 10.4028 13.4122 10.2966 13.5183C10.1905 13.6244 10.0466 13.684 9.89648 13.684C9.7464 13.684 9.60246 13.6244 9.49633 13.5183C9.39021 13.4122 9.33058 13.2682 9.33058 13.1181V8.2941C9.33058 8.14402 9.39021 8.00008 9.49633 7.89395C9.60246 7.78782 9.7464 7.7282 9.89648 7.7282C10.0466 7.7282 10.1905 7.78782 10.2966 7.89395C10.386 7.9833 10.4424 8.09945 10.458 8.22351C10.9085 7.90212 11.4499 7.72783 12.0071 7.7282ZM10.4624 8.36136C10.4237 8.39072 10.3858 8.42122 10.3487 8.45289V8.29407C10.3487 8.17413 10.3011 8.05909 10.2162 7.97428C10.1314 7.88947 10.0164 7.84182 9.89645 7.84182C9.77651 7.84182 9.66148 7.88947 9.57666 7.97428C9.49185 8.05909 9.4442 8.17413 9.4442 8.29407V13.1181C9.4442 13.2381 9.49185 13.3531 9.57666 13.4379C9.66148 13.5227 9.77651 13.5704 9.89645 13.5704C10.0164 13.5704 10.1314 13.5227 10.2162 13.4379C10.3011 13.3531 10.3487 13.2381 10.3487 13.1181V10.4046C10.3487 9.96479 10.5234 9.54301 10.8344 9.23202C11.1454 8.92104 11.5672 8.74633 12.007 8.74633C12.4468 8.74633 12.8686 8.92104 13.1795 9.23202C13.4905 9.54301 13.6652 9.96479 13.6652 10.4046V13.1181C13.6652 13.2381 13.7129 13.3531 13.7977 13.4379C13.8825 13.5227 13.9975 13.5704 14.1175 13.5704C14.2374 13.5704 14.3525 13.5227 14.4373 13.4379C14.5221 13.3531 14.5697 13.2381 14.5697 13.1181V10.4046C14.569 9.72514 14.2987 9.07374 13.8183 8.5933C13.3378 8.11285 12.6864 7.8426 12.007 7.84182C11.4478 7.84145 10.9055 8.02477 10.4624 8.36136ZM8.05036 8.2941V13.1181C8.05036 13.2682 7.99073 13.4122 7.88461 13.5183C7.77848 13.6244 7.63454 13.684 7.48446 13.684C7.33437 13.684 7.19043 13.6244 7.08431 13.5183C6.97818 13.4122 6.91856 13.2682 6.91856 13.1181V8.2941C6.91856 8.14402 6.97818 8.00008 7.08431 7.89395C7.19044 7.78782 7.33437 7.7282 7.48446 7.7282C7.63454 7.7282 7.77848 7.78782 7.88461 7.89395C7.99073 8.00008 8.05036 8.14402 8.05036 8.2941ZM7.00256 5.16079C7.1452 5.06547 7.3129 5.0146 7.48446 5.0146C7.71451 5.0146 7.93513 5.10599 8.0978 5.26866C8.26047 5.43133 8.35186 5.65195 8.35186 5.882C8.35186 6.05356 8.30099 6.22126 8.20568 6.3639C8.11037 6.50655 7.97489 6.61772 7.8164 6.68338C7.6579 6.74903 7.4835 6.7662 7.31524 6.73274C7.14698 6.69927 6.99242 6.61666 6.87111 6.49535C6.74981 6.37404 6.66719 6.21948 6.63372 6.05122C6.60026 5.88296 6.61743 5.70856 6.68309 5.55006C6.74874 5.39157 6.85991 5.2561 7.00256 5.16079ZM3.11264 3.16845V15.8316C3.11296 16.1113 3.22424 16.3796 3.42207 16.5774C3.6199 16.7752 3.88812 16.8865 4.1679 16.8868H16.831C17.1108 16.8865 17.379 16.7752 17.5768 16.5774C17.7747 16.3796 17.886 16.1113 17.8863 15.8316V3.16845C17.886 2.88867 17.7747 2.62045 17.5768 2.42262C17.379 2.22479 17.1108 2.11351 16.831 2.11319H4.1679C3.88812 2.11351 3.6199 2.22479 3.42207 2.42262C3.22424 2.62045 3.11296 2.88867 3.11264 3.16845ZM16.8682 3.16859C16.8681 3.15872 16.8642 3.14926 16.8572 3.14228C16.8503 3.13531 16.8408 3.13139 16.831 3.13137L4.16804 3.13137C4.15817 3.13138 4.14871 3.1353 4.14173 3.14228C4.13476 3.14925 4.13084 3.15869 4.13082 3.16855L4.13082 15.8315C4.13083 15.8414 4.13475 15.8508 4.14173 15.8578C4.14871 15.8648 4.15817 15.8687 4.16804 15.8687H16.8309C16.8408 15.8687 16.8503 15.8648 16.8572 15.8578C16.8642 15.8508 16.8681 15.8414 16.8682 15.8315V3.16859ZM16.9818 3.16845C16.9817 3.12848 16.9658 3.09016 16.9376 3.0619C16.9093 3.03363 16.871 3.01774 16.831 3.0177H4.1679C4.12793 3.01774 4.08961 3.03363 4.06135 3.0619C4.03308 3.09016 4.01719 3.12848 4.01715 3.16845V15.8316C4.01719 15.8715 4.03308 15.9099 4.06135 15.9381C4.08961 15.9664 4.12793 15.9823 4.1679 15.9823H16.831C16.871 15.9823 16.9093 15.9664 16.9376 15.9381C16.9658 15.9099 16.9817 15.8715 16.9818 15.8316V3.16845ZM7.93668 13.1181V8.29407C7.93668 8.17413 7.88904 8.05909 7.80422 7.97428C7.71941 7.88947 7.60438 7.84182 7.48443 7.84182C7.36449 7.84182 7.24945 7.88947 7.16464 7.97428C7.07982 8.05909 7.03218 8.17413 7.03218 8.29407V13.1181C7.03218 13.2381 7.07982 13.3531 7.16464 13.4379C7.24945 13.5227 7.36449 13.5704 7.48443 13.5704C7.60438 13.5704 7.71941 13.5227 7.80422 13.4379C7.88904 13.3531 7.93668 13.2381 7.93668 13.1181ZM7.06567 5.25525C7.18962 5.17242 7.33535 5.12822 7.48443 5.12822C7.68434 5.12822 7.87606 5.20763 8.01742 5.34899C8.15877 5.49034 8.23819 5.68207 8.23819 5.88197C8.23819 6.03105 8.19398 6.17679 8.11116 6.30074C8.02833 6.42469 7.91061 6.52131 7.77288 6.57836C7.63515 6.63541 7.48359 6.65033 7.33738 6.62125C7.19117 6.59216 7.05686 6.52038 6.95144 6.41496C6.84603 6.30955 6.77424 6.17524 6.74516 6.02903C6.71607 5.88281 6.731 5.73126 6.78805 5.59352C6.8451 5.45579 6.94171 5.33807 7.06567 5.25525Z" fill="#5B5B5B"/>
</svg>
