<svg width="20" height="20" viewBox="0 0 20 20" fill="none" xmlns="http://www.w3.org/2000/svg">
<path fill-rule="evenodd" clip-rule="evenodd" d="M8.66012 8.1911C8.49133 7.20025 8.52252 6.18567 8.75185 5.20705C7.52435 5.6267 6.48322 6.46288 5.80844 7.57031C5.13365 8.67774 4.86833 9.98645 5.05859 11.2691C5.24885 12.5517 5.88266 13.7271 6.84991 14.5913C7.81715 15.4554 9.05671 15.9535 10.3532 15.9992C10.4 16.0009 10.4468 16.0003 10.4932 15.9997C10.5164 15.9995 10.5394 15.9992 10.5623 15.9992C11.3071 15.9981 12.044 15.8475 12.7293 15.5564C13.4147 15.2652 14.0345 14.8394 14.552 14.3042C13.5677 14.0986 12.6344 13.6983 11.8071 13.1268C10.9798 12.5554 10.3167 11.2691 11 10.5C10.7704 10.1399 10.3441 9.84789 9.91662 9.55512C9.33791 9.15875 8.75721 8.76101 8.66012 8.1911ZM9.40371 4.00803C9.4326 4.00281 9.4619 4.00013 9.49126 4.00003C9.57211 4.00297 9.6511 4.02517 9.72163 4.06479C9.79216 4.10441 9.8522 4.16031 9.89674 4.22782C9.94128 4.29533 9.96903 4.3725 9.97769 4.4529C9.98635 4.5333 9.97566 4.6146 9.94651 4.69004C9.60388 5.63247 9.48265 6.64103 9.5922 7.63776C9.65878 8.24352 10.2634 8.77078 10.8484 9.28103C11.2261 9.61036 11.5956 9.93261 11.8071 10.2643C11.4635 11.2163 11.844 11.9943 12.7016 12.5146C13.5593 13.0348 14.5252 13.351 15.5246 13.4387C15.6132 13.4439 15.6988 13.4724 15.7729 13.5212C15.847 13.57 15.9069 13.6375 15.9466 13.7168C15.9863 13.7961 16.0044 13.8845 15.9991 13.973C15.9938 14.0616 15.9652 14.1472 15.9163 14.2212C15.3125 15.0798 14.5107 15.7804 13.5787 16.2639C12.6467 16.7473 11.6119 16.9994 10.5618 16.9987C10.5349 16.9987 10.5079 16.999 10.4807 16.9994C10.4263 17 10.3715 17.0007 10.3167 16.9987C8.70016 16.9407 7.16222 16.2871 5.99898 15.1637C4.83574 14.0402 4.12946 12.5264 4.01611 10.9137C3.90277 9.30091 4.39037 7.70326 5.38505 6.42833C6.37972 5.15339 7.81114 4.2913 9.40371 4.00803ZM7.5 10.5C7.60675 10.2425 7.98822 9.8048 8.66012 10.1138C8.66012 10.3558 8.6281 10.8719 8.5 11C8.3719 11.1281 7.77996 10.72 7.5 10.5Z" fill="#5B5B5B"/>
</svg>
