<svg width="20" height="20" viewBox="0 0 20 20" fill="none" xmlns="http://www.w3.org/2000/svg">
<path d="M11.5721 14.0389L11.5729 14.0326C11.601 13.809 11.5771 13.582 11.503 13.3692C11.429 13.1564 11.3068 12.9636 11.146 12.8057L11.0982 12.7588L11.4295 11.8975L11.4901 11.8897C12.3722 11.7759 13.2458 11.5787 13.8997 11.042C14.5477 10.5102 14.9968 9.63029 14.9968 8.11146C14.9968 7.39738 14.7225 6.73641 14.2239 6.18259L14.2069 6.1637L14.0786 5.65131L14.0907 5.62076C14.2878 5.12437 14.3156 4.57775 14.1713 4.06529C13.873 4.12874 13.3361 4.27868 12.4762 4.8859L12.457 4.89948L12.0695 4.96321L12.0488 4.95795C10.7172 4.61994 9.32231 4.61994 7.99078 4.95795L7.97003 4.96321L7.58605 4.90005L7.56898 4.88961C6.63648 4.31922 6.09746 4.13784 5.81562 4.10983C5.67227 4.64115 5.68383 5.20957 5.88955 5.67415L5.90372 5.70616L5.77488 6.2235L5.75483 6.24355C5.203 6.79521 4.92857 7.51114 4.92857 8.16852C4.92857 9.66032 5.35012 10.5404 5.98409 11.0788C6.62336 11.6216 7.49619 11.833 8.4339 11.9467L8.49988 11.9547L8.7658 12.8187L8.72231 12.8621C8.39986 13.1845 8.24203 13.6105 8.29482 14.0326L8.29561 14.0389V16.4406C8.29654 16.5142 8.28276 16.5872 8.25507 16.6554C8.22728 16.7238 8.18605 16.7859 8.13381 16.8382C8.08157 16.8904 8.01938 16.9316 7.9509 16.9594C7.88288 16.987 7.81003 17.0008 7.73661 17C7.66319 17.0008 7.59035 16.987 7.52232 16.9594C7.45385 16.9316 7.39165 16.8904 7.33941 16.8382C7.28717 16.7859 7.24594 16.7238 7.21816 16.6554C7.19047 16.5872 7.17669 16.5142 7.17762 16.4406V15.2642C6.80531 15.4011 6.55048 15.6221 6.28164 15.8673L6.27956 15.8692L6.27732 15.871L6.18315 15.9471C5.85658 16.2123 5.48467 16.5143 4.89954 16.5983L4.46669 16.5803C4.34229 16.5279 4.25054 16.4384 4.21394 16.3381C4.17537 16.2325 4.21539 16.1314 4.26635 16.0559C4.31742 15.9802 4.3854 15.9214 4.42359 15.8949L4.44693 15.8788L4.4795 15.8743C4.60182 15.8575 4.72004 15.8062 4.8499 15.7222C4.97095 15.6439 5.09285 15.5436 5.23237 15.4288L5.26338 15.4033L5.2704 15.397C5.56978 15.1307 5.92807 14.8119 6.46621 14.5983L7.34885 14.1915V14.0521C7.29675 13.6194 7.3895 13.1894 7.58191 12.8056C6.75383 12.6252 5.86398 12.2903 5.16839 11.6157C4.43199 10.9015 3.92474 9.81786 3.92474 8.16915C3.92474 7.24985 4.2076 6.44052 4.77308 5.74544C4.6106 4.94366 4.67137 4.08691 4.96002 3.39435L4.97008 3.37021L5.28439 3.11884L5.29409 3.11399C5.3396 3.09124 5.42603 3.06821 5.54959 3.05972C5.67588 3.05103 5.84686 3.05708 6.06489 3.0977C6.49447 3.17771 7.10765 3.39204 7.92442 3.89406C9.28078 3.56173 10.6974 3.56154 12.0538 3.89348C12.8438 3.36357 13.4575 3.1347 13.8946 3.04724C14.1166 3.00282 14.2931 2.99488 14.4238 3.0026C14.5511 3.01012 14.6421 3.03293 14.6888 3.0565L14.6982 3.06129L15.0146 3.31429L15.0243 3.34159C15.3097 4.14041 15.3729 4.94386 15.155 5.7481C15.7187 6.44248 16 7.25071 16 8.16852C16 9.84331 15.5228 10.9415 14.8074 11.6568C14.1311 12.333 13.2535 12.6552 12.4009 12.8099C12.5863 13.1993 12.633 13.628 12.633 14.0453V16.3842C12.633 16.5472 12.5838 16.6875 12.4922 16.7881C12.4003 16.8892 12.2725 16.9427 12.1318 16.9429C12.0582 16.9438 11.985 16.93 11.9168 16.9023C11.8483 16.8745 11.7861 16.8333 11.7339 16.7811C11.6816 16.7289 11.6404 16.6667 11.6126 16.5983C11.5849 16.5301 11.5711 16.4571 11.5721 16.3836V14.0389Z" fill="#5B5B5B"/>
</svg>
